<svg width="516" height="44" viewBox="0 0 516 44" fill="none" xmlns="http://www.w3.org/2000/svg">
<rect x="0.5" y="1.5" width="482" height="41" rx="19.5" fill="#D9D9D9" stroke="#E4DFDF"/>
<path d="M24.5 25.5C27.3619 25.5 29.6818 23.4853 29.6818 21V13.5C29.6818 11.0147 27.3619 9 24.5 9C21.6381 9 19.3182 11.0147 19.3182 13.5V21C19.3182 23.4853 21.6381 25.5 24.5 25.5ZM33.1364 18H32.2727C31.7956 18 31.4091 18.3356 31.4091 18.75V21C31.4091 24.5063 27.9281 27.3197 23.8096 26.9709C20.2201 26.6667 17.5909 23.8645 17.5909 20.7328V18.75C17.5909 18.3356 17.2044 18 16.7273 18H15.8636C15.3865 18 15 18.3356 15 18.75V20.6325C15 24.8344 18.4529 28.5802 23.2045 29.1492V30.75H20.1818C19.7047 30.75 19.3182 31.0856 19.3182 31.5V32.25C19.3182 32.6644 19.7047 33 20.1818 33H28.8182C29.2953 33 29.6818 32.6644 29.6818 32.25V31.5C29.6818 31.0856 29.2953 30.75 28.8182 30.75H25.7955V29.167C30.4218 28.6158 34 25.1672 34 21V18.75C34 18.3356 33.6135 18 33.1364 18Z" fill="#FD8F74"/>
<path d="M24.5 25.5C27.3619 25.5 29.6818 23.4853 29.6818 21V13.5C29.6818 11.0147 27.3619 9 24.5 9C21.6381 9 19.3182 11.0147 19.3182 13.5V21C19.3182 23.4853 21.6381 25.5 24.5 25.5ZM33.1364 18H32.2727C31.7956 18 31.4091 18.3356 31.4091 18.75V21C31.4091 24.5063 27.9281 27.3197 23.8096 26.9709C20.2201 26.6667 17.5909 23.8645 17.5909 20.7328V18.75C17.5909 18.3356 17.2044 18 16.7273 18H15.8636C15.3865 18 15 18.3356 15 18.75V20.6325C15 24.8344 18.4529 28.5802 23.2045 29.1492V30.75H20.1818C19.7047 30.75 19.3182 31.0856 19.3182 31.5V32.25C19.3182 32.6644 19.7047 33 20.1818 33H28.8182C29.2953 33 29.6818 32.6644 29.6818 32.25V31.5C29.6818 31.0856 29.2953 30.75 28.8182 30.75H25.7955V29.167C30.4218 28.6158 34 25.1672 34 21V18.75C34 18.3356 33.6135 18 33.1364 18Z" fill="black" fill-opacity="0.2"/>
<path d="M463.5 0.5H493.241C496.864 0.5 499.556 0.50029 501.697 0.651361C503.833 0.8021 505.384 1.10116 506.73 1.68011C510.138 3.14605 512.854 5.86238 514.32 9.2702C514.899 10.6161 515.198 12.1667 515.349 14.303C515.5 16.4441 515.5 19.1355 515.5 22.7586C515.5 26.1406 515.5 28.6513 515.359 30.6481C515.218 32.6403 514.94 34.0834 514.401 35.3346C513.036 38.5074 510.507 41.0364 507.335 42.4013C506.083 42.9395 504.64 43.2183 502.648 43.3588C500.651 43.4997 498.141 43.5 494.759 43.5H463.5V0.5Z" fill="#AF5E5E" stroke="#FC4C21"/>
<path d="M498.674 30.7495L494 26.0766C493.789 25.8656 493.503 25.7485 493.203 25.7485H492.439C493.733 24.0939 494.501 22.0129 494.501 19.749C494.501 14.3636 490.137 10 484.751 10C479.364 10 475 14.3636 475 19.749C475 25.1345 479.364 29.4981 484.751 29.4981C487.015 29.4981 489.096 28.7294 490.751 27.4358V28.1998C490.751 28.4998 490.868 28.7857 491.079 28.9966L495.753 33.6696C496.194 34.1101 496.906 34.1101 497.342 33.6696L498.669 32.3431C499.11 31.9025 499.11 31.1901 498.674 30.7495ZM484.751 25.7485C481.436 25.7485 478.75 23.0675 478.75 19.749C478.75 16.4353 481.432 13.7496 484.751 13.7496C488.065 13.7496 490.751 16.4306 490.751 19.749C490.751 23.0628 488.07 25.7485 484.751 25.7485Z" fill="#FEBCAC"/>
</svg>
