<svg width="189" height="66" viewBox="0 0 189 66" fill="none" xmlns="http://www.w3.org/2000/svg">
<path d="M0 15H12.7082L21.2227 60.4592C21.5133 62.0222 22.309 63.4263 23.4706 64.4256C24.6323 65.4248 26.0858 65.9557 27.5768 65.9251H58.4578C59.9488 65.9557 61.4024 65.4248 62.564 64.4256C63.7257 63.4263 64.5214 62.0222 64.8119 60.4592L69.8952 31.975H15.8853" stroke="#FEBCAC" stroke-width="2" stroke-linecap="round" stroke-linejoin="round"/>
<path d="M188.552 63.848V55.9937C188.552 51.8275 187.116 47.8319 184.558 44.886C182 41.94 178.531 40.285 174.914 40.285H147.638C144.021 40.285 140.552 41.94 137.995 44.886C135.437 47.8319 134 51.8275 134 55.9937V63.848" stroke="#FEBCAC" stroke-width="2" stroke-linecap="round" stroke-linejoin="round"/>
<path d="M161.276 28.1235C169.75 28.1235 176.619 21.8279 176.619 14.0618C176.619 6.29567 169.75 0 161.276 0C152.803 0 145.933 6.29567 145.933 14.0618C145.933 21.8279 152.803 28.1235 161.276 28.1235Z" stroke="#FEBCAC" stroke-width="2" stroke-linecap="round" stroke-linejoin="round"/>
</svg>
